<svg width="68" height="67" viewBox="0 0 68 67" fill="none" xmlns="http://www.w3.org/2000/svg">
<ellipse cx="35.6245" cy="62.8206" rx="29" ry="3.5" fill="url(#paint0_radial_41_331)"/>
<path d="M31.1245 62.4493C34.7912 62.4493 38.4578 62.4493 42.1245 62.4493C42.0328 61.849 41.9412 61.2487 41.8495 60.6485C41.6433 59.2984 41.4372 57.9483 41.231 56.5982C40.8078 54.4122 40.8027 52.0653 41.2742 49.7293C41.2742 49.7293 41.2742 49.7293 41.2742 49.7293C41.7123 47.5501 42.5649 45.3835 43.8218 43.3854C46.0911 39.9014 48.3609 36.4166 50.6307 32.932C50.9621 32.4232 51.2935 31.9144 51.6245 31.406C51.1567 31.7923 50.6886 32.179 50.2204 32.5657C47.0142 35.2141 43.8078 37.8627 40.602 40.5106C38.421 42.3601 36.5223 44.6519 35.063 47.2707C35.063 47.2707 35.063 47.2707 35.063 47.2707C33.4974 50.0747 32.4388 53.2549 32.018 56.5982C31.8119 57.9483 31.6057 59.2984 31.3995 60.6485C31.3078 61.2487 31.2162 61.849 31.1245 62.4493Z" fill="#F35B04"/>
<path d="M46.3906 62.4493C39.3906 62.4493 32.3906 62.4493 25.3906 62.4493C25.5656 61.6639 25.7406 60.8785 25.9156 60.0931C26.6119 56.9683 27.3082 53.8434 28.0045 50.7185C28.5081 49.268 28.7865 47.6629 28.7798 45.982C28.7798 45.982 28.7798 45.982 28.7798 45.982C28.7735 44.1017 28.4086 42.1286 27.6466 40.206C24.9682 34.4196 22.286 28.6283 19.6059 22.8398C19.268 22.1098 18.9302 21.38 18.5922 20.65C19.2082 21.1674 19.824 21.6846 20.44 22.202C25.3241 26.305 30.2103 30.4108 35.0928 34.5117C37.4031 36.6037 39.4089 39.1797 40.933 42.1173C40.933 42.1173 40.933 42.1173 40.933 42.1173C42.2961 44.7406 43.2743 47.6518 43.7768 50.7185C44.473 53.8434 45.1693 56.9683 45.8656 60.0931C46.0406 60.8785 46.2156 61.6639 46.3906 62.4493Z" fill="#F35B04"/>
<path d="M45.2734 15.2632C42.8664 19.5135 40.3472 28.766 49.5259 31.7742C52.1814 28.6182 55.0486 20.8975 45.2734 15.2632Z" fill="#3D348B"/>
<path d="M66.3415 19.4741C61.4857 18.9454 51.9915 20.293 52.8608 29.9129C56.81 31.1028 65.0351 30.681 66.3415 19.4741Z" fill="#3D348B"/>
<path d="M66.4288 40.7158C61.8655 42.4579 52.3397 43.5605 50.7426 34.0344C54.2613 31.8824 62.3247 30.2059 66.4288 40.7158Z" fill="#3D348B"/>
<path d="M27.6544 4.90177C29.2716 9.51077 30.1144 19.0631 20.5484 20.4002C18.493 16.8242 17.0367 8.71814 27.6544 4.90177Z" fill="#3D348B"/>
<path d="M6.17377 5.31965C11.0465 5.6582 20.1527 8.66392 17.5955 17.9783C13.498 18.451 5.4773 16.5809 6.17377 5.31965Z" fill="#3D348B"/>
<path d="M2.33045 26.211C6.51361 28.7327 15.6942 31.5029 18.9511 22.4096C15.8685 19.6691 8.22883 16.5927 2.33045 26.211Z" fill="#3D348B"/>
<defs>
<radialGradient id="paint0_radial_41_331" cx="0" cy="0" r="1" gradientUnits="userSpaceOnUse" gradientTransform="translate(35.6245 62.8206) scale(29 3.5)">
<stop stop-color="#737373" stop-opacity="0.5"/>
<stop offset="1" stop-color="#D9D9D9" stop-opacity="0"/>
</radialGradient>
</defs>
</svg>
